<svg width="46" height="49" viewBox="0 0 46 49" fill="none" xmlns="http://www.w3.org/2000/svg">
<path d="M14.5015 32.8801C13.3532 31.5684 12.1651 30.2049 11.2242 28.1995C10.3033 26.2219 9.79293 24.1806 9.80888 22.0596C9.82881 19.9386 10.367 17.7537 11.5392 15.4971C11.5472 15.4812 11.5551 15.4692 11.5631 15.4533C13.0981 12.8538 15.247 11.1155 17.6392 10.1427C19.6446 9.32141 21.8254 9.04232 23.9624 9.23768C26.0914 9.43304 28.1766 10.1028 29.9986 11.1793C32.315 12.5508 34.2208 14.5841 35.2693 17.1517C35.8355 18.5431 36.2182 20.0941 36.266 21.7925C36.3139 23.4869 36.0228 25.3129 35.2414 27.2426C34.0453 30.2049 31.2505 33.3785 29.4205 36.2929C29.3208 36.273 29.2172 36.269 29.1135 36.2849L26.6456 36.6517L30.4053 23.5746C30.5129 23.2038 30.2937 22.8171 29.9229 22.7095C29.5521 22.6058 29.1654 22.8211 29.0577 23.1919L25.1226 36.883L21.3909 37.4371L17.4478 24.9023C17.7309 24.9581 18.0299 24.8345 18.1854 24.5714L20.9802 19.815L22.4035 23.0803C22.559 23.4351 22.9697 23.5946 23.3205 23.4431C23.496 23.3673 23.6235 23.2238 23.6913 23.0603L24.9512 19.8788L26.4263 23.77C26.5619 24.1328 26.9646 24.3122 27.3274 24.1767C27.6902 24.0411 27.8696 23.6384 27.734 23.2756L25.6329 17.7338C25.5731 17.5384 25.4256 17.371 25.2223 17.2913C24.8635 17.1477 24.4568 17.3271 24.3133 17.686L23.0096 20.9831L21.7098 18.0009C21.654 17.8694 21.5543 17.7537 21.4228 17.678C21.0918 17.4826 20.6613 17.5943 20.4699 17.9252L17.073 23.7062L16.8298 22.9367C16.7142 22.5699 16.3235 22.3626 15.9567 22.4782C15.5899 22.5938 15.3826 22.9846 15.4982 23.3514L19.9915 37.6445L17.2883 38.0471C16.6345 36.1135 15.6377 34.1838 14.5015 32.8801ZM5.68641 7.37579C5.37144 7.08076 5.20399 6.68606 5.18805 6.28737C5.1721 5.88867 5.31164 5.48201 5.60268 5.16704C5.89772 4.85208 6.29242 4.68463 6.69111 4.66868C7.0898 4.65273 7.49647 4.79227 7.81144 5.08332L10.3152 7.41566C10.6302 7.71069 10.7976 8.1054 10.8136 8.50409C10.8295 8.90677 10.69 9.30945 10.3989 9.62441C10.1039 9.93938 9.70921 10.1068 9.31052 10.1228C8.90784 10.1387 8.50516 9.99918 8.19019 9.70814L5.68641 7.37579ZM1.59185 24.5873C1.16924 24.5953 0.782504 24.4318 0.495447 24.1647C0.204402 23.8896 0.0170169 23.5069 0.0010692 23.0723C-0.0148785 22.6417 0.148585 22.243 0.423682 21.952C0.698779 21.6609 1.08152 21.4735 1.5161 21.4616L4.93288 21.3459C5.36347 21.33 5.76216 21.4935 6.05321 21.7686C6.34425 22.0437 6.53164 22.4264 6.5436 22.861V22.8849H6.54758L6.5436 22.9407C6.53562 23.3434 6.37615 23.7062 6.12098 23.9813C5.84589 24.2723 5.46314 24.4557 5.02857 24.4717H5.00465V24.4757H4.96876L1.59185 24.5873ZM44.1402 19.7432L44.192 19.7392C44.5987 19.7153 44.9775 19.8469 45.2725 20.0861C45.5835 20.3373 45.7948 20.712 45.8426 21.1386V21.1546C45.8466 21.1546 45.8466 21.1984 45.8466 21.2064C45.8705 21.6131 45.739 21.9918 45.4997 22.2869C45.2486 22.5978 44.8738 22.8091 44.4472 22.857L41.0464 23.2158C40.6158 23.2597 40.2091 23.1241 39.9021 22.8729C39.5911 22.6218 39.3758 22.247 39.332 21.8204C39.2881 21.3938 39.4237 20.9831 39.6749 20.6761C39.926 20.3652 40.3008 20.1499 40.7274 20.106C41.8637 19.9824 43.0039 19.8508 44.1402 19.7432ZM37.4023 6.13188C37.6455 5.77305 38.0043 5.54979 38.3951 5.47005C38.7858 5.3943 39.2044 5.46606 39.5672 5.70528L39.5712 5.70926C39.93 5.94848 40.1573 6.31129 40.233 6.702C40.3088 7.09272 40.237 7.51135 39.9978 7.87416L38.096 10.7168C37.8568 11.0757 37.494 11.3029 37.0993 11.3826C36.7086 11.4584 36.29 11.3866 35.9272 11.1474C35.5683 10.9082 35.3411 10.5414 35.2613 10.1507C35.1856 9.75997 35.2574 9.34134 35.4966 8.97853L37.4023 6.13188ZM22.6348 1.53098C22.6467 1.0964 22.8301 0.709671 23.1212 0.434574C23.4043 0.163464 23.795 0 24.2176 0.00398691V0C24.2535 0 24.2894 0.00398691 24.3252 0.00797383C24.7199 0.0398691 25.0748 0.21928 25.3299 0.486404C25.601 0.769475 25.7645 1.15621 25.7605 1.58281H25.7645C25.7645 1.61071 25.7645 1.63862 25.7605 1.66254L25.6768 4.99959H25.6808C25.6808 5.03547 25.6768 5.07136 25.6728 5.10724C25.6409 5.50593 25.4615 5.85678 25.1944 6.11194C24.9073 6.38305 24.5206 6.54651 24.098 6.54253V6.54651C24.0621 6.54651 24.0262 6.54253 23.9903 6.53854C23.5916 6.50665 23.2408 6.32723 22.9856 6.06011C22.7145 5.77305 22.5511 5.38632 22.555 4.96371H22.5511C22.5511 4.9358 22.5511 4.90789 22.555 4.88397L22.6348 1.53098ZM28.4756 38.2146L28.2244 39.3907L28.1606 40.228L18.0618 41.731C18.0259 41.129 17.9302 40.4792 17.7787 39.8054L28.4756 38.2146ZM28.1407 42.062L28.1487 42.5683L28.1606 42.7437C28.1886 43.0746 28.1925 43.4095 28.1726 43.7404L28.0211 44.4701L18.6399 45.8655L18.4764 45.4907L18.1096 43.9916L18.1017 43.557L28.1407 42.062ZM27.4031 46.3917C26.9167 47.225 26.2469 47.8749 25.4814 48.3174C24.7997 48.7161 24.0382 48.9434 23.2767 48.9912C22.5032 49.0391 21.7218 48.8915 21.0081 48.5487C20.5217 48.3095 20.0672 47.9785 19.6645 47.5479L27.4031 46.3917Z" fill="black"/>
</svg>
