<svg width="21" height="21" viewBox="0 0 21 21" fill="none" xmlns="http://www.w3.org/2000/svg">
<path d="M10.7455 0.889596L10.7254 0.888634C10.7183 0.888298 10.711 0.888121 10.7036 0.888121C10.4549 0.888121 10.2533 1.08971 10.2533 1.33838V4.0399C10.2533 4.28858 10.4549 4.49016 10.7036 4.49016C10.9522 4.49016 11.1538 4.28858 11.1538 4.0399V2.29525V1.7918L11.6541 1.84779C12.9211 1.98956 14.1477 2.41382 15.2401 3.09779C16.8036 4.0767 18.0084 5.53506 18.6749 7.25512C19.3413 8.97521 19.4335 10.8647 18.9376 12.6414L18.9376 12.6414C18.4417 14.4182 17.3845 15.9868 15.9237 17.1133L15.9237 17.1133C14.4629 18.2397 12.6769 18.8634 10.8326 18.8911C8.98806 18.919 7.18413 18.3495 5.69002 17.2677C4.19591 16.1858 3.0918 14.6498 2.54258 12.8887C2.08808 11.4315 2.03373 9.88491 2.37658 8.4091L2.37658 8.4091C2.44396 8.11908 2.29107 7.85035 2.0653 7.77063L2.06529 7.77062C1.81727 7.68304 1.58866 7.82085 1.53873 8.01757L1.53873 8.01758C1.11029 9.70567 1.15516 11.4854 1.67704 13.1588C2.28451 15.1065 3.50572 16.8055 5.15828 18.002C6.81086 19.1986 8.80615 19.8286 10.8461 19.7978C12.8863 19.7669 14.8616 19.0771 16.4773 17.8312C18.0931 16.5854 19.2625 14.8503 19.8109 12.8852L20.2379 13.0043L19.8109 12.8851C20.3594 10.9199 20.2574 8.8301 19.5203 6.92758C18.7832 5.02509 17.4506 3.41205 15.7213 2.32933C14.2357 1.39919 12.5258 0.903294 10.7842 0.888456L10.7455 0.889596ZM10.7455 0.889596L10.7656 0.888756M10.7455 0.889596L10.7656 0.888756M10.7656 0.888756C10.7716 0.888508 10.7778 0.888402 10.7842 0.888456L10.7656 0.888756Z" fill="#0F0F0F" stroke="#D4FF00" stroke-width="0.90051"/>
<path d="M4.43123 3.44691L4.43123 3.44691C4.25265 3.32786 4.01487 3.3514 3.8631 3.50317C3.71133 3.65494 3.68779 3.89272 3.80684 4.0713C3.80684 4.0713 3.80684 4.0713 3.80684 4.07131L8.65358 11.3414C8.82463 11.598 9.05365 11.9056 9.39346 12.1148L9.39349 12.1148C9.66569 12.2825 10.0787 12.4726 10.5718 12.4787L10.5719 12.4787C11.0824 12.4851 11.6287 12.2931 12.1409 11.781C12.653 11.2689 12.845 10.7224 12.8387 10.2118C12.8325 9.71871 12.6424 9.30576 12.4748 9.03361L4.43123 3.44691ZM4.43123 3.44691L11.7013 8.29364M4.43123 3.44691L11.7013 8.29364M9.40292 10.8421L9.40283 10.8419L7.05368 7.31813L7.67807 6.69375L11.2018 9.04291C11.2018 9.04292 11.2018 9.04292 11.2018 9.04293C11.4362 9.19911 11.6056 9.33939 11.708 9.50573C11.828 9.70062 11.9348 9.95246 11.9382 10.2231L11.9382 10.2231C11.9413 10.4758 11.8557 10.7927 11.5042 11.1443C11.1526 11.4958 10.8357 11.5814 10.583 11.5783H10.583C10.3124 11.5749 10.0605 11.4682 9.86566 11.3481L9.40292 10.8421ZM9.40292 10.8421C9.55922 11.0763 9.69941 11.2456 9.86563 11.3481L9.40292 10.8421ZM11.7013 8.29364C11.9579 8.46468 12.2655 8.69371 12.4748 9.03359L11.7013 8.29364Z" stroke="#D4FF00" stroke-width="0.90051"/>
</svg>
