<svg width="27" height="19" viewBox="0 0 27 19" fill="none" xmlns="http://www.w3.org/2000/svg">
<path d="M5.90399 10.0295L5.90397 10.0295L5.89974 10.0329C5.62209 10.2589 5.21748 10.215 4.99553 9.93915L4.99554 9.93914L4.99325 9.93633C4.76881 9.66058 4.81026 9.24948 5.08704 9.02203C5.10899 9.00465 5.58709 8.62792 6.42359 8.15999C7.28305 7.67923 8.51199 7.10718 10.0063 6.72662C12.9788 5.96958 17.0168 5.96291 21.345 8.99223L21.345 8.99226C21.6367 9.19641 21.7099 9.60287 21.5048 9.8984L21.5046 9.89875C21.3795 10.0793 21.1801 10.1758 20.9769 10.1758H20.9356C20.8217 10.1687 20.7097 10.1317 20.6082 10.0611C16.7099 7.33323 13.0456 7.29434 10.3502 7.96237C7.67874 8.62448 5.97226 9.97486 5.90399 10.0295Z" fill="#494C4E" stroke="#D4FF00" stroke-width="1.29023"/>
<path d="M13.8767 17.2735C13.8767 17.6298 13.5879 17.9186 13.2316 17.9186C12.8753 17.9186 12.5865 17.6298 12.5865 17.2735C12.5865 16.9172 12.8753 16.6284 13.2316 16.6284C13.5879 16.6284 13.8767 16.9172 13.8767 17.2735Z" fill="#494C4E" stroke="#D4FF00" stroke-width="1.29023"/>
<path d="M24.4878 6.19637L24.487 6.19579C18.3388 2.02799 12.7526 1.97099 8.68561 2.99222C4.64353 4.0072 2.12843 6.07812 2.04262 6.14925L2.04259 6.14921L2.03621 6.15463C1.76688 6.38385 1.36284 6.35172 1.12921 6.07631C0.899322 5.79952 0.935685 5.38866 1.20492 5.15934C1.2114 5.15398 1.25414 5.11883 1.33169 5.05899C1.416 4.99393 1.54074 4.90026 1.7038 4.7846C2.03004 4.5532 2.509 4.23431 3.12398 3.88072C4.35503 3.17292 6.12427 2.33004 8.29941 1.76888C12.6319 0.651149 18.6033 0.640662 25.2065 5.11539C25.4988 5.31444 25.58 5.71957 25.3814 6.02064C25.2529 6.2089 25.0512 6.30658 24.8475 6.30658C24.7219 6.30658 24.5979 6.27123 24.4878 6.19637ZM16.7385 13.9326L16.7366 13.9313C14.9207 12.6675 13.2082 12.6147 11.932 12.9121C10.6923 13.201 9.88215 13.8137 9.76774 13.9058C9.49234 14.1245 9.08805 14.0813 8.86341 13.8036C8.63985 13.5209 8.68484 13.1188 8.95763 12.897L8.95873 12.8961C10.3038 11.7975 13.8482 10.3405 17.4755 12.8665L17.4762 12.867C17.7701 13.0711 17.8427 13.4736 17.6374 13.7682L17.6355 13.7708C17.5123 13.9497 17.3139 14.0466 17.1087 14.0466H17.0626C16.9497 14.0395 16.8383 14.0026 16.7385 13.9326Z" fill="#494C4E" stroke="#D4FF00" stroke-width="1.29023"/>
</svg>
