<svg width="37" height="45" viewBox="0 0 37 45" fill="none" xmlns="http://www.w3.org/2000/svg">
<path d="M34.7021 4.0826C35.2435 4.0826 35.7627 3.86754 36.1455 3.48472C36.5283 3.1019 36.7434 2.58269 36.7434 2.0413C36.7434 1.49991 36.5283 0.980701 36.1455 0.597883C35.7627 0.215065 35.2435 0 34.7021 0H2.0413C1.49991 0 0.980701 0.215065 0.597883 0.597883C0.215065 0.980701 0 1.49991 0 2.0413C0 2.58269 0.215065 3.1019 0.597883 3.48472C0.980701 3.86754 1.49991 4.0826 2.0413 4.0826H4.18262C4.48065 7.83043 5.69931 15.8201 10.7025 20.413C5.42578 25.5387 4.35205 36.2004 4.13772 40.826H2.0413C1.49991 40.826 0.980701 41.0411 0.597883 41.4239C0.215065 41.8067 0 42.3259 0 42.8673C0 43.4087 0.215065 43.9279 0.597883 44.3107C0.980701 44.6935 1.49991 44.9086 2.0413 44.9086H34.7021C35.2435 44.9086 35.7627 44.6935 36.1455 44.3107C36.5283 43.9279 36.7434 43.4087 36.7434 42.8673C36.7434 42.3259 36.5283 41.8067 36.1455 41.4239C35.7627 41.0411 35.2435 40.826 34.7021 40.826H32.6057C32.3914 36.2045 31.3176 25.5428 26.0409 20.413C31.0441 15.816 32.2628 7.82635 32.5608 4.0826H34.7021ZM21.597 18.6289C21.2727 18.809 21.0036 19.0741 20.8186 19.3956C20.6336 19.7172 20.5398 20.083 20.5471 20.4539C20.5545 20.8248 20.6627 21.1866 20.8603 21.5006C21.0579 21.8146 21.3372 22.0688 21.6684 22.2359C26.6431 24.7426 28.2006 35.1185 28.517 40.826H8.22644C8.53468 35.1104 10.1004 24.7426 15.075 22.2359C15.4062 22.0688 15.6855 21.8146 15.8831 21.5006C16.0807 21.1866 16.1889 20.8248 16.1963 20.4539C16.2036 20.083 16.1098 19.7172 15.9248 19.3956C15.7398 19.0741 15.4707 18.809 15.1465 18.6289C9.96359 15.7527 8.62858 7.84676 8.2836 4.0826H28.4598C28.1148 7.84676 26.7798 15.7527 21.597 18.6289ZM18.3717 24.4956C18.3717 24.4956 24.4956 29.3947 24.4956 31.8443V38.7847H12.2478V31.8443C12.2478 29.3947 18.3717 24.4956 18.3717 24.4956Z" fill="black"/>
</svg>
