<svg width="19" height="18" viewBox="0 0 19 18" fill="none" xmlns="http://www.w3.org/2000/svg">
<path d="M9.88549 8.23627C8.79653 8.23627 7.75218 7.80368 6.98217 7.03367C6.21216 6.26366 5.77957 5.2193 5.77957 4.13034C5.77957 3.04138 6.21216 1.99702 6.98217 1.22701C7.75218 0.457002 8.79653 0.0244141 9.88549 0.0244141C10.9745 0.0244141 12.0188 0.457002 12.7888 1.22701C13.5588 1.99702 13.9914 3.04138 13.9914 4.13034C13.9914 5.2193 13.5588 6.26366 12.7888 7.03367C12.0188 7.80368 10.9745 8.23627 9.88549 8.23627ZM9.88549 10.0402C15.3446 10.0402 18.8442 13.0528 18.8442 14.5196V17.2585H0.926812V14.5196C0.926812 12.7457 4.2399 10.0402 9.88549 10.0402Z" fill="white"/>
</svg>
