    <svg width="19" height="21" viewBox="0 0 19 21" fill="none" xmlns="http://www.w3.org/2000/svg">
    <path d="M4.89519 17.647H3.54443C2.54975 17.647 1.74341 16.8407 1.74341 15.846V3.23889C1.74341 2.24421 2.54975 1.43787 3.54443 1.43787H16.1516C17.1463 1.43787 17.9526 2.24421 17.9526 3.23889V15.846C17.9526 16.8407 17.1463 17.647 16.1516 17.647H14.8008M9.848 16.7465C11.3401 16.7465 12.5495 15.5371 12.5495 14.045C12.5495 12.5529 11.3401 11.3435 9.848 11.3435C8.35594 11.3435 7.14647 12.5529 7.14647 14.045C7.14647 15.5371 8.35594 16.7465 9.848 16.7465ZM9.848 16.7465L9.86727 16.7464L6.99218 19.6215L4.44515 17.0744L7.16416 14.3554M9.848 16.7465L12.7231 19.6215L15.2701 17.0744L12.5511 14.3554M7.14647 5.03991H12.5495M5.34545 8.19169H14.3505" stroke="#D4FF00" stroke-width="1.80102" stroke-linecap="round" stroke-linejoin="round"/>
    </svg>
