<svg width="12" height="14" viewBox="0 0 12 14" fill="none" xmlns="http://www.w3.org/2000/svg">
<path d="M0.894733 11.9101L0.894733 2.21934C0.894179 1.83676 1.00198 1.46184 1.20567 1.13798C1.40935 0.814125 1.70058 0.554572 2.04566 0.389366C2.45509 0.195973 2.91062 0.121486 3.36033 0.174393C3.81003 0.227299 4.23584 0.405472 4.58921 0.688607L10.4589 5.53401C10.6783 5.72416 10.8543 5.95925 10.9749 6.22336C11.0955 6.48746 11.1579 6.7744 11.1579 7.06474C11.1579 7.35507 11.0955 7.64202 10.9749 7.90612C10.8543 8.17023 10.6783 8.40532 10.4589 8.59547L4.58921 13.4409C4.23584 13.724 3.81003 13.9022 3.36033 13.9551C2.91062 14.008 2.45509 13.9335 2.04566 13.7401C1.70058 13.5749 1.40935 13.3154 1.20567 12.9915C1.00198 12.6676 0.894179 12.2927 0.894733 11.9101Z" fill="white"/>
</svg>
