<svg width="197" height="195" viewBox="0 0 197 195" fill="none" xmlns="http://www.w3.org/2000/svg">
<path d="M84.4335 169.379L80.5602 183.434L78.6125 182.897L82.4858 168.842L84.4335 169.379ZM82.2037 175.353L81.7057 177.16L72.2083 174.543L72.7063 172.736L82.2037 175.353ZM80.5161 181.478L80.0181 183.285L69.7175 180.446L70.2154 178.639L80.5161 181.478ZM83.8914 169.229L83.3934 171.036L72.892 168.142L73.39 166.335L83.8914 169.229Z" fill="black"/>
<path d="M62.0392 160.802L54.7599 174.623L53.0461 173.721L60.3254 159.9L62.0392 160.802ZM67.4815 169.554C66.6339 171.163 65.6063 172.175 64.3988 172.591C63.1791 173 61.8628 172.832 60.45 172.088C59.6268 171.655 59.0249 171.189 58.6441 170.69C58.2511 170.185 58.0204 169.639 57.952 169.054C57.8772 168.481 57.943 167.865 58.1495 167.204C58.3559 166.544 58.6533 165.846 59.0415 165.108C59.3909 164.445 59.7701 163.844 60.1789 163.306C60.5878 162.768 61.05 162.353 61.5655 162.059C62.081 161.766 62.6679 161.62 63.3262 161.621C63.9658 161.629 64.6972 161.849 65.5203 162.283C66.1591 162.619 66.6999 163.037 67.1428 163.537C67.5856 164.037 67.903 164.597 68.0949 165.216C68.2803 165.847 68.3312 166.525 68.2476 167.25C68.1575 167.987 67.9021 168.755 67.4815 169.554ZM65.6659 168.621C66.2353 167.54 66.4137 166.59 66.2012 165.772C65.9887 164.954 65.3849 164.283 64.3897 163.759C63.3701 163.222 62.4628 163.097 61.6679 163.384C60.8608 163.666 60.1725 164.347 59.6031 165.428C59.0402 166.497 58.8743 167.437 59.1056 168.249C59.3181 169.068 59.9342 169.745 60.9539 170.282C61.5191 170.58 62.0309 170.755 62.4893 170.808C62.9414 170.874 63.3553 170.833 63.731 170.686C64.1068 170.538 64.4567 170.291 64.7808 169.944C65.0926 169.59 65.3877 169.149 65.6659 168.621Z" fill="black"/>
<path d="M49.467 165.142L47.9812 163.899L51.6556 159.506C51.9673 159.133 52.216 158.771 52.4015 158.419C52.5674 158.069 52.6489 157.712 52.646 157.347C52.6431 156.983 52.5415 156.617 52.3413 156.251C52.1304 155.875 51.7799 155.483 51.29 155.073C50.4272 154.351 49.5815 154.042 48.7529 154.146C47.9047 154.251 47.0931 154.767 46.3181 155.694L46.1712 155.869L45.564 155.362L45.6977 155.202C46.2232 154.573 46.7628 154.047 47.3164 153.623C47.8594 153.19 48.4253 152.903 49.014 152.762C49.6027 152.621 50.216 152.645 50.8539 152.835C51.4811 153.015 52.1356 153.391 52.8173 153.961C53.4244 154.469 53.8893 154.984 54.2119 155.507C54.5328 156.011 54.7132 156.542 54.7531 157.1C54.7824 157.65 54.6703 158.217 54.4168 158.801C54.1634 159.386 53.765 160.003 53.2216 160.652L49.467 165.142ZM42.9644 159.704L41.4786 158.461L48.1593 150.473L49.6451 151.715L42.9644 159.704Z" fill="black"/>
<path d="M42.9065 144.59L37.6429 154.649L36.2953 152.979L41.572 142.937L42.9065 144.59ZM41.572 142.937L42.9065 144.59L31.9778 147.632L30.6302 145.962L41.572 142.937Z" fill="black"/>
<path d="M27.5304 129.564L27.8991 129.37L28.8006 131.085L28.0079 131.501C27.4425 131.799 27.002 132.124 26.6863 132.479C26.3583 132.839 26.1425 133.22 26.0388 133.619C25.9288 134.007 25.9186 134.42 26.0083 134.859C26.0916 135.286 26.2527 135.727 26.4918 136.181C26.7245 136.624 27.0115 136.991 27.3528 137.282C27.6819 137.579 28.062 137.795 28.4933 137.929C28.9246 138.063 29.3912 138.1 29.893 138.04C30.3884 137.968 30.9188 137.783 31.4841 137.486C32.1109 137.156 32.6006 136.805 32.9532 136.431C33.2993 136.045 33.5332 135.64 33.655 135.215C33.7767 134.79 33.7863 134.346 33.6836 133.882C33.5745 133.406 33.381 132.904 33.1031 132.375C32.8834 131.958 32.6372 131.609 32.3644 131.329C32.0851 131.036 31.7948 130.812 31.4935 130.657C31.18 130.508 30.877 130.424 30.5847 130.405C30.2737 130.381 29.983 130.439 29.7126 130.582L28.8974 128.986C29.9174 128.45 30.9379 128.392 31.9589 128.812C32.9799 129.232 33.8652 130.155 34.6148 131.581C35.5324 133.326 35.8025 134.839 35.425 136.12C35.041 137.388 34.0379 138.449 32.4156 139.302C30.8548 140.123 29.4401 140.341 28.1715 139.957C26.8905 139.58 25.8429 138.617 25.0287 137.068C24.111 135.323 23.8885 133.856 24.361 132.666C24.8271 131.464 25.8836 130.43 27.5304 129.564ZM32.5131 138.145L31.1674 138.853L26.9993 130.926L28.345 130.218L32.5131 138.145Z" fill="black"/>
<path d="M29.7925 121.12L30.3368 122.979L20.3426 125.905L19.7983 124.046L29.7925 121.12ZM21.8169 115.968L22.326 117.707C21.9396 117.82 21.6048 117.962 21.3217 118.131C21.0253 118.305 20.7912 118.518 20.6193 118.771C20.4434 119.011 20.3404 119.301 20.3103 119.643C20.2628 119.975 20.3035 120.361 20.4323 120.801C20.6898 121.68 21.1925 122.285 21.9404 122.616C22.6711 122.938 23.6161 122.929 24.7754 122.589L24.9953 122.525L25.2177 123.284L25.0178 123.343C24.2316 123.573 23.4905 123.71 22.7947 123.755C22.0988 123.8 21.4708 123.73 20.9108 123.547C20.3508 123.364 19.872 123.063 19.4744 122.644C19.073 122.212 18.7708 121.649 18.5679 120.956C18.3845 120.33 18.3198 119.763 18.3737 119.255C18.4237 118.734 18.5837 118.268 18.8538 117.856C19.12 117.431 19.5047 117.065 20.0082 116.758C20.4944 116.442 21.0973 116.179 21.8169 115.968Z" fill="black"/>
<path d="M19.2149 110.704C18.6894 110.751 18.2307 110.688 17.8386 110.514C17.4453 110.326 17.1062 110.043 16.8211 109.664C16.5349 109.272 16.3103 108.79 16.1474 108.219C15.9833 107.634 15.867 106.962 15.7986 106.201C15.6406 104.445 15.8279 103.118 16.3605 102.219C16.8793 101.322 17.8163 100.813 19.1716 100.691L19.332 102.475C18.9172 102.512 18.5789 102.626 18.3172 102.817C18.0556 103.008 17.863 103.269 17.7395 103.601C17.6009 103.92 17.5176 104.311 17.4895 104.773C17.4602 105.222 17.4722 105.744 17.5257 106.339C17.5767 106.906 17.6599 107.365 17.7752 107.717C17.8755 108.057 17.9972 108.325 18.1403 108.521C18.2683 108.705 18.4115 108.824 18.5699 108.88C18.7282 108.935 18.8835 108.956 19.0356 108.942C19.2015 108.927 19.3556 108.858 19.4978 108.733C19.6387 108.595 19.7665 108.389 19.8811 108.113C19.9819 107.839 20.0822 107.482 20.1819 107.041C20.2666 106.587 20.3425 106.036 20.4098 105.389C20.4796 104.616 20.557 103.926 20.6418 103.319C20.7253 102.698 20.866 102.169 21.0638 101.733C21.2465 101.285 21.5146 100.933 21.868 100.678C22.2064 100.411 22.673 100.25 23.2676 100.197C24.374 100.097 25.1989 100.434 25.7425 101.208C26.2711 101.969 26.605 103.124 26.7443 104.673C26.9123 106.54 26.7375 107.929 26.22 108.84C25.6874 109.738 24.7435 110.248 23.3882 110.37L23.2258 108.565C23.6269 108.529 23.9576 108.409 24.218 108.204C24.4784 107.999 24.6767 107.724 24.8128 107.377C24.9489 107.03 25.031 106.625 25.0591 106.163C25.0859 105.686 25.0744 105.172 25.0247 104.618C24.9786 104.107 24.9124 103.681 24.826 103.34C24.7245 102.986 24.6085 102.704 24.478 102.493C24.3474 102.281 24.1948 102.135 24.0202 102.053C23.8455 101.971 23.6683 101.938 23.4885 101.954C23.1981 101.981 22.9774 102.084 22.8263 102.265C22.6741 102.432 22.5632 102.672 22.4938 102.985C22.4105 103.299 22.3542 103.681 22.3249 104.129C22.2817 104.579 22.2316 105.107 22.1744 105.711C22.1286 106.287 22.0546 106.858 21.9522 107.425C21.8499 107.992 21.6947 108.515 21.4869 108.994C21.2778 109.458 20.992 109.847 20.6297 110.158C20.2674 110.469 19.7958 110.651 19.2149 110.704Z" fill="black"/>
<path d="M26.2134 95.157L15.8182 94.5354L15.9338 92.6018L26.3291 93.2235L26.2134 95.157ZM12.6332 94.7622C12.1619 94.734 11.8216 94.6093 11.6123 94.3882C11.3899 94.1523 11.2937 93.7849 11.3235 93.2859C11.3525 92.8008 11.4911 92.4614 11.7391 92.2676C11.9741 92.059 12.3273 91.9689 12.7985 91.9971C13.2698 92.0252 13.6166 92.1573 13.839 92.3931C14.0483 92.6143 14.1385 92.9674 14.1094 93.4525C14.0796 93.9515 13.9472 94.3052 13.7122 94.5137C13.4641 94.7076 13.1044 94.7904 12.6332 94.7622Z" fill="black"/>
<path d="M23.6311 85.337L16.9631 83.9504L12.9993 82.5518L13.2834 81.1855L23.683 83.3481C23.9685 83.4074 24.2568 83.4532 24.548 83.4854C24.8419 83.504 25.1158 83.4829 25.3695 83.4222C25.6096 83.3587 25.827 83.2337 26.0218 83.0473C26.203 82.8581 26.3317 82.5799 26.4081 82.2129C26.4618 81.9546 26.4705 81.7082 26.4341 81.4737C26.4006 81.2257 26.3125 81.0017 26.1696 80.8018C26.0268 80.6019 25.8158 80.4233 25.5365 80.266C25.2465 80.0922 24.8703 79.9573 24.4081 79.8611L24.777 78.0871C25.5655 78.251 26.2132 78.4779 26.7203 78.7677C27.2137 79.0547 27.591 79.3884 27.8523 79.769C28.1135 80.1495 28.2641 80.585 28.3039 81.0754C28.3465 81.5523 28.3099 82.0694 28.194 82.6268C28.0781 83.1842 27.907 83.6662 27.6806 84.073C27.457 84.4661 27.1632 84.7879 26.7991 85.0384C26.4242 85.2725 25.9751 85.4202 25.4518 85.4816C24.9313 85.5293 24.3244 85.4811 23.6311 85.337ZM16.4161 86.5809L18.4514 76.793L20.2255 77.1619L18.1902 86.9498L16.4161 86.5809Z" fill="black"/>
<path d="M32.7406 70.3686L19.9827 71.5533L20.8427 69.52L31.5858 68.5007L32.7406 70.3686ZM32.2667 68.4948C32.8875 69.0588 33.4396 69.5713 33.9231 70.0321C34.4249 70.4855 34.8144 70.9367 35.0919 71.3857C35.3821 71.8401 35.543 72.3152 35.5745 72.811C35.6243 73.2994 35.5139 73.8633 35.2435 74.5027C35.0379 74.9887 34.7635 75.3701 34.4203 75.647C34.0952 75.9166 33.7177 76.0962 33.2879 76.1857C32.8634 76.2625 32.3967 76.2611 31.8876 76.1814C31.3968 76.0944 30.8892 75.9401 30.3648 75.7183L31.0382 74.1262C31.473 74.3101 31.8446 74.4295 32.153 74.4846C32.4668 74.5269 32.7221 74.5293 32.9188 74.4919C33.1337 74.4471 33.2965 74.3652 33.4072 74.2462C33.5232 74.1143 33.6164 73.9653 33.6867 73.799C33.7895 73.5561 33.8212 73.3207 33.7818 73.093C33.7552 72.8707 33.6694 72.6459 33.5243 72.4187C33.392 72.1969 33.2068 71.9754 32.9687 71.7541C32.7488 71.5254 32.497 71.2832 32.2131 71.0275L23.5282 63.1706L24.3314 61.2716L32.2667 68.4948Z" fill="black"/>
<path d="M40.6296 54.6296L29.7066 44.9731L31.0447 43.4595L41.9677 53.116L40.6296 54.6296ZM36.2428 50.0008L34.8384 48.7593L41.3634 41.3785L42.7677 42.62L36.2428 50.0008ZM31.4835 45.7934L30.0791 44.5518L37.1559 36.5469L38.5603 37.7884L31.4835 45.7934ZM41.002 54.2082L39.5977 52.9667L46.8124 44.8057L48.2168 46.0473L41.002 54.2082Z" fill="black"/>
<path d="M58.1753 38.2834L48.9599 25.6707L50.5238 24.5279L59.7393 37.1407L58.1753 38.2834ZM47.9226 39.3258C46.8495 37.8571 46.3917 36.4892 46.5492 35.222C46.7179 33.9465 47.4469 32.8378 48.7362 31.8958C49.4874 31.347 50.1706 31.0111 50.7859 30.8883C51.4124 30.7573 52.0036 30.7897 52.5593 30.9855C53.1069 31.1701 53.6319 31.5002 54.1342 31.9758C54.6364 32.4514 55.1333 33.0256 55.6248 33.6983C56.0672 34.3037 56.4401 34.9082 56.7436 35.5119C57.0471 36.1156 57.2173 36.7134 57.2544 37.3055C57.2914 37.8975 57.1646 38.4888 56.8739 39.0795C56.5863 39.6508 56.0669 40.2109 55.3157 40.7597C54.7327 41.1857 54.1193 41.4876 53.4756 41.6657C52.8318 41.8437 52.1898 41.8829 51.5495 41.7832C50.901 41.6724 50.2696 41.4201 49.6552 41.0263C49.0326 40.6214 48.455 40.0546 47.9226 39.3258ZM49.5584 38.1049C50.2792 39.0915 51.0538 39.6691 51.8821 39.8378C52.7104 40.0064 53.5786 39.759 54.4867 39.0955C55.4172 38.4156 55.928 37.6555 56.0191 36.8151C56.1213 35.9665 55.812 35.049 55.0912 34.0624C54.3785 33.087 53.6066 32.5247 52.7753 32.3754C51.947 32.2067 51.0676 32.4624 50.137 33.1422C49.6213 33.5191 49.2388 33.9017 48.9895 34.2902C48.7321 34.6674 48.587 35.0572 48.5542 35.4595C48.5214 35.8618 48.5897 36.2848 48.7591 36.7285C48.9397 37.164 49.2062 37.6228 49.5584 38.1049Z" fill="black"/>
<path d="M59.8026 25.0831L61.5718 24.2946L63.9035 29.5261C64.1013 29.97 64.3174 30.3525 64.5518 30.6737C64.7932 30.9765 65.0782 31.2068 65.4069 31.3643C65.7355 31.5219 66.1085 31.5912 66.5258 31.5725C66.9557 31.5481 67.4624 31.4058 68.0458 31.1458C69.0731 30.688 69.7224 30.0641 69.9936 29.2743C70.2719 28.4662 70.1652 27.5105 69.6734 26.4071L69.5801 26.1979L70.303 25.8757L70.3878 26.0659C70.7213 26.8141 70.9568 27.5301 71.0943 28.2137C71.2444 28.8917 71.2536 29.5261 71.1217 30.1169C70.9898 30.7078 70.6985 31.248 70.2479 31.7377C69.8099 32.2218 69.1851 32.6447 68.3735 33.0064C67.6506 33.3286 66.9832 33.5197 66.3714 33.5795C65.7779 33.6464 65.2217 33.5751 64.7027 33.3656C64.1963 33.1504 63.7363 32.8006 63.3228 32.316C62.9092 31.8315 62.53 31.2024 62.1852 30.4288L59.8026 25.0831ZM67.5452 21.6322L69.3143 20.8436L73.5538 30.3554L71.7847 31.144L67.5452 21.6322Z" fill="black"/>
<path d="M81.1462 28.2223L74.4248 19.0738L76.5163 18.5969L83.2175 27.7501L81.1462 28.2223ZM83.2175 27.7501L81.1462 28.2223L83.2175 17.069L85.309 16.5921L83.2175 27.7501Z" fill="black"/>
<path d="M101.401 21.0147L101.413 21.4311L99.4773 21.4874L99.4512 20.5922C99.4327 19.9537 99.3337 19.4149 99.1542 18.9756C98.9743 18.5224 98.7277 18.1615 98.4143 17.8927C98.1148 17.6236 97.748 17.4329 97.3142 17.3205C96.8942 17.2077 96.4274 17.1587 95.9139 17.1736C95.4142 17.1882 94.9586 17.2848 94.5471 17.4634C94.1351 17.6282 93.7742 17.8748 93.4643 18.2033C93.1543 18.5318 92.916 18.9346 92.7493 19.4118C92.5964 19.8885 92.5293 20.4461 92.5479 21.0845C92.5684 21.7924 92.6691 22.3868 92.8497 22.8677C93.0443 23.3482 93.3056 23.7365 93.6337 24.0326C93.9618 24.3287 94.3567 24.5325 94.8183 24.6441C95.2938 24.7553 95.83 24.8022 96.4268 24.7849C96.8987 24.7711 97.3204 24.7033 97.6919 24.5814C98.0773 24.4591 98.406 24.2967 98.6779 24.0943C98.9494 23.8781 99.1579 23.6428 99.3033 23.3886C99.4622 23.12 99.5372 22.8331 99.5283 22.5277L101.319 22.4965C101.353 23.6485 100.957 24.5907 100.13 25.3231C99.3044 26.0556 98.0864 26.4452 96.4764 26.492C94.5056 26.5493 93.0278 26.1269 92.0431 25.2248C91.0723 24.3224 90.5603 22.9551 90.507 21.123C90.4558 19.3604 90.8814 17.9936 91.7839 17.0228C92.6859 16.0381 94.0114 15.5204 95.7601 15.4695C97.731 15.4122 99.1469 15.8573 100.008 16.8046C100.883 17.7515 101.347 19.1549 101.401 21.0147ZM91.5036 21.7192L91.4595 20.1994L100.412 19.9392L100.456 21.4589L91.5036 21.7192Z" fill="black"/>
<path d="M107.992 26.7577L106.083 26.4296L107.846 16.1663L109.755 16.4944L107.992 26.7577ZM116.125 21.8579L114.339 21.5509C114.407 21.1541 114.427 20.7912 114.399 20.4624C114.373 20.1198 114.285 19.8158 114.133 19.5502C113.995 19.287 113.779 19.0668 113.486 18.8895C113.208 18.7009 112.844 18.5678 112.392 18.4902C111.489 18.335 110.724 18.5206 110.099 19.047C109.489 19.5621 109.082 20.415 108.877 21.6055L108.838 21.8313L108.058 21.6972L108.093 21.492C108.232 20.6846 108.434 19.9586 108.7 19.3139C108.966 18.6692 109.304 18.1356 109.715 17.7131C110.126 17.2906 110.607 16.9929 111.158 16.8199C111.722 16.6493 112.36 16.6251 113.072 16.7474C113.715 16.8579 114.253 17.049 114.685 17.3205C115.131 17.5944 115.48 17.9431 115.731 18.3667C115.996 18.7926 116.156 19.2991 116.21 19.886C116.28 20.4616 116.252 21.1189 116.125 21.8579Z" fill="black"/>
<path d="M121.997 21.8345C122.186 21.3417 122.444 20.9574 122.773 20.6816C123.114 20.4108 123.517 20.2306 123.983 20.1411C124.461 20.0564 124.992 20.0664 125.577 20.171C126.174 20.2805 126.829 20.4717 127.543 20.7445C129.19 21.3745 130.3 22.1261 130.873 22.9993C131.45 23.8595 131.496 24.9251 131.01 26.1961L129.337 25.5562C129.486 25.1671 129.532 24.8131 129.476 24.4942C129.419 24.1753 129.269 23.8875 129.026 23.6308C128.8 23.366 128.485 23.1194 128.082 22.8908C127.692 22.6673 127.218 22.4488 126.66 22.2355C126.129 22.0322 125.679 21.9049 125.312 21.8537C124.963 21.7946 124.669 21.7861 124.43 21.8285C124.209 21.8628 124.038 21.9389 123.919 22.0567C123.8 22.1746 123.713 22.3048 123.658 22.4475C123.599 22.6031 123.593 22.7721 123.643 22.9544C123.705 23.1417 123.834 23.3473 124.031 23.5713C124.233 23.7822 124.51 24.0295 124.862 24.3129C125.233 24.5884 125.694 24.8985 126.246 25.2434C126.909 25.6459 127.495 26.0187 128.003 26.3617C128.524 26.7096 128.937 27.0682 129.242 27.4375C129.565 27.7988 129.763 28.1942 129.836 28.6237C129.928 29.0452 129.867 29.5348 129.654 30.0925C129.257 31.13 128.591 31.7229 127.658 31.8711C126.742 32.0114 125.558 31.8038 124.105 31.2482C122.354 30.5786 121.184 29.8111 120.593 28.9459C120.02 28.0727 119.977 27.0007 120.463 25.7297L122.155 26.377C122.011 26.7531 121.974 27.1031 122.043 27.427C122.113 27.7508 122.273 28.0501 122.525 28.3248C122.777 28.5994 123.104 28.851 123.507 29.0796C123.924 29.3131 124.391 29.529 124.91 29.7274C125.39 29.911 125.802 30.0388 126.146 30.1109C126.508 30.1751 126.812 30.1949 127.059 30.1706C127.307 30.1462 127.505 30.0735 127.656 29.9526C127.806 29.8317 127.913 29.687 127.978 29.5184C128.082 29.246 128.086 29.0023 127.99 28.7871C127.907 28.5769 127.74 28.3719 127.489 28.172C127.244 27.9591 126.926 27.7409 126.536 27.5173C126.15 27.2808 125.699 27.004 125.181 26.6869C124.684 26.3928 124.203 26.0751 123.739 25.7341C123.275 25.393 122.873 25.0239 122.535 24.6268C122.209 24.2346 121.986 23.8074 121.865 23.345C121.745 22.8827 121.789 22.3792 121.997 21.8345Z" fill="black"/>
<path d="M132.886 34.9535L138.013 25.8892L139.699 26.8428L134.572 35.9071L132.886 34.9535ZM139.209 22.9286C139.442 22.5177 139.703 22.2668 139.994 22.176C140.303 22.0799 140.676 22.1549 141.111 22.401C141.534 22.6402 141.778 22.9139 141.843 23.2219C141.927 23.5246 141.853 23.8814 141.62 24.2924C141.388 24.7033 141.117 24.9568 140.807 25.0529C140.517 25.1437 140.16 25.0695 139.737 24.8302C139.302 24.5841 139.042 24.3097 138.958 24.007C138.893 23.699 138.977 23.3395 139.209 22.9286Z" fill="black"/>
<path d="M142.842 36.9498L147.018 31.5696L150.016 28.6239L151.118 29.4795L144.605 37.8705C144.427 38.1008 144.259 38.3397 144.102 38.5871C143.956 38.8429 143.855 39.0982 143.798 39.3528C143.749 39.5964 143.766 39.8466 143.848 40.1035C143.938 40.3494 144.131 40.5873 144.427 40.8171C144.636 40.9789 144.853 41.095 145.08 41.1654C145.317 41.2443 145.557 41.2636 145.8 41.2231C146.042 41.1827 146.295 41.0717 146.559 40.8899C146.843 40.7058 147.129 40.4272 147.419 40.0543L148.85 41.1653C148.356 41.8015 147.868 42.2836 147.385 42.6117C146.91 42.9288 146.445 43.1211 145.988 43.1885C145.531 43.2559 145.074 43.1997 144.616 43.02C144.169 42.8487 143.72 42.5885 143.271 42.2395C142.821 41.8904 142.463 41.5248 142.197 41.1427C141.942 40.7691 141.782 40.3637 141.718 39.9266C141.672 39.487 141.737 39.0187 141.912 38.5216C142.097 38.0331 142.407 37.5092 142.842 36.9498ZM144.895 29.9222L152.793 36.0521L151.682 37.4836L143.784 31.3536L144.895 29.9222Z" fill="black"/>
<path d="M152.283 51.7108L156.826 39.7305L158.275 41.3966L154.469 51.4944L152.283 51.7108ZM154.175 52.1087C153.395 52.4184 152.692 52.6891 152.066 52.921C151.438 53.1724 150.862 53.324 150.336 53.3759C149.801 53.4368 149.303 53.3726 148.844 53.183C148.384 53.013 147.925 52.6661 147.47 52.1421C147.124 51.7439 146.902 51.3298 146.804 50.8997C146.705 50.4893 146.709 50.0713 146.818 49.6458C146.935 49.2308 147.142 48.8122 147.437 48.3899C147.731 47.9873 148.093 47.5992 148.522 47.2257L149.656 48.5303C149.3 48.84 149.029 49.1213 148.844 49.3741C148.669 49.6374 148.554 49.8656 148.501 50.0588C148.447 50.2715 148.449 50.4537 148.507 50.6054C148.575 50.7676 148.668 50.9168 148.786 51.053C148.959 51.2521 149.157 51.384 149.379 51.4488C149.59 51.5226 149.83 51.5442 150.097 51.5138C150.355 51.4924 150.635 51.4234 150.939 51.3068C151.241 51.2098 151.569 51.09 151.923 50.9475L162.798 46.5993L164.151 48.1554L154.175 52.1087Z" fill="black"/>
<path d="M162.954 65.7142L176.428 60.1467L177.2 62.0138L163.725 67.5814L162.954 65.7142ZM169.04 63.8081L170.772 63.0922L174.534 72.1971L172.802 72.9129L169.04 63.8081ZM174.911 61.3822L176.643 60.6664L180.723 70.5412L178.991 71.257L174.911 61.3822ZM163.169 66.2339L164.901 65.5181L169.061 75.5854L167.328 76.3012L163.169 66.2339Z" fill="black"/>
<path d="M169.926 88.6588L185.305 85.9243L185.644 87.8313L170.265 90.5658L169.926 88.6588ZM173.495 78.9912C175.286 78.6728 176.716 78.8628 177.785 79.5612C178.857 80.2733 179.532 81.4154 179.812 82.9875C179.975 83.9034 179.976 84.6647 179.816 85.2714C179.658 85.8918 179.369 86.4085 178.949 86.8217C178.543 87.2324 178.015 87.5589 177.367 87.801C176.719 88.0431 175.985 88.2371 175.165 88.383C174.427 88.5142 173.72 88.5835 173.044 88.5908C172.369 88.5981 171.757 88.4883 171.209 88.2614C170.661 88.0345 170.185 87.6607 169.782 87.14C169.396 86.6305 169.121 85.9178 168.958 85.0019C168.832 84.291 168.83 83.6073 168.953 82.9508C169.076 82.2943 169.323 81.7004 169.694 81.169C170.079 80.6353 170.583 80.179 171.206 79.8001C171.844 79.4188 172.607 79.1492 173.495 78.9912ZM173.873 80.9972C172.67 81.2111 171.811 81.6529 171.295 82.3228C170.78 82.9927 170.62 83.8813 170.817 84.9886C171.019 86.1233 171.477 86.9162 172.192 87.3673C172.909 87.8321 173.87 87.9575 175.073 87.7436C176.262 87.5322 177.106 87.0859 177.606 86.4048C178.121 85.7349 178.278 84.8326 178.076 83.6979C177.965 83.0691 177.789 82.5574 177.55 82.1627C177.324 81.7657 177.038 81.464 176.691 81.2577C176.344 81.0515 175.934 80.9269 175.461 80.8841C174.99 80.855 174.461 80.8926 173.873 80.9972Z" fill="black"/>
<path d="M181.067 95.9218L180.998 97.8575L175.274 97.6528C174.789 97.6354 174.35 97.6614 173.959 97.7308C173.58 97.8145 173.248 97.9694 172.962 98.1953C172.676 98.4213 172.45 98.7258 172.284 99.1089C172.117 99.5058 172.022 100.023 171.999 100.662C171.959 101.786 172.234 102.643 172.824 103.234C173.427 103.839 174.333 104.163 175.54 104.206L175.769 104.215L175.741 105.005L175.533 104.998C174.714 104.969 173.967 104.866 173.293 104.689C172.618 104.526 172.044 104.255 171.571 103.877C171.098 103.499 170.741 103 170.499 102.38C170.257 101.774 170.152 101.026 170.184 100.138C170.212 99.3474 170.334 98.664 170.549 98.0881C170.749 97.5257 171.058 97.0574 171.474 96.6832C171.89 96.323 172.406 96.0636 173.023 95.905C173.64 95.7464 174.372 95.6823 175.219 95.7126L181.067 95.9218ZM180.764 104.393L180.695 106.329L170.288 105.957L170.357 104.021L180.764 104.393Z" fill="black"/>
<path d="M168.867 113.714L180.039 111.697L179.548 113.785L168.381 115.782L168.867 113.714ZM168.381 115.782L168.867 113.714L177.975 120.476L177.485 122.564L168.381 115.782Z" fill="black"/>
<path d="M166.439 135.076L166.06 134.904L166.86 133.14L167.676 133.51C168.258 133.774 168.785 133.922 169.259 133.953C169.745 133.991 170.177 133.928 170.556 133.765C170.93 133.614 171.262 133.368 171.554 133.028C171.84 132.7 172.089 132.303 172.301 131.835C172.508 131.38 172.621 130.928 172.642 130.48C172.675 130.037 172.612 129.605 172.453 129.182C172.294 128.759 172.037 128.368 171.682 128.008C171.321 127.662 170.849 127.356 170.268 127.092C169.623 126.8 169.045 126.629 168.533 126.58C168.016 126.543 167.553 126.608 167.142 126.772C166.732 126.937 166.376 127.202 166.073 127.567C165.764 127.946 165.486 128.407 165.239 128.95C165.044 129.38 164.92 129.789 164.866 130.176C164.806 130.576 164.808 130.943 164.87 131.276C164.945 131.615 165.065 131.906 165.229 132.148C165.401 132.409 165.625 132.602 165.904 132.728L165.144 134.351C164.095 133.875 163.423 133.105 163.128 132.041C162.833 130.977 163.018 129.711 163.684 128.245C164.499 126.449 165.528 125.307 166.771 124.819C168.008 124.344 169.461 124.485 171.13 125.242C172.736 125.971 173.777 126.954 174.252 128.191C174.74 129.434 174.623 130.852 173.9 132.446C173.085 134.241 172.063 135.317 170.834 135.674C169.598 136.044 168.134 135.844 166.439 135.076ZM170.157 125.876L171.541 126.504L167.841 134.659L166.456 134.031L170.157 125.876Z" fill="black"/>
<path d="M158.385 138.471L159.518 136.901L167.962 142.996L166.828 144.566L158.385 138.471ZM159.211 147.93L160.272 146.461C160.598 146.697 160.916 146.874 161.223 146.994C161.542 147.121 161.854 147.175 162.159 147.156C162.456 147.147 162.749 147.05 163.037 146.865C163.329 146.698 163.609 146.429 163.877 146.058C164.413 145.315 164.582 144.546 164.385 143.753C164.19 142.979 163.603 142.238 162.623 141.531L162.438 141.397L162.901 140.755L163.07 140.877C163.734 141.357 164.297 141.857 164.759 142.379C165.222 142.901 165.552 143.44 165.751 143.994C165.95 144.549 166.006 145.112 165.92 145.683C165.825 146.265 165.566 146.849 165.143 147.434C164.761 147.964 164.353 148.363 163.92 148.632C163.477 148.912 163.011 149.072 162.52 149.111C162.021 149.162 161.496 149.083 160.945 148.873C160.397 148.683 159.819 148.369 159.211 147.93Z" fill="black"/>
<path d="M156.651 153.216C157.011 153.602 157.243 154.003 157.346 154.419C157.439 154.845 157.424 155.286 157.3 155.743C157.166 156.21 156.923 156.683 156.572 157.162C156.211 157.651 155.752 158.155 155.193 158.676C153.903 159.879 152.741 160.545 151.704 160.676C150.678 160.817 149.7 160.39 148.772 159.395L150.083 158.173C150.367 158.478 150.664 158.675 150.975 158.764C151.287 158.854 151.611 158.846 151.949 158.739C152.286 158.653 152.646 158.479 153.028 158.217C153.401 157.965 153.805 157.635 154.242 157.228C154.658 156.84 154.97 156.492 155.177 156.185C155.384 155.898 155.52 155.637 155.588 155.404C155.654 155.19 155.661 155.003 155.607 154.844C155.554 154.685 155.475 154.55 155.371 154.438C155.257 154.316 155.108 154.237 154.922 154.201C154.727 154.175 154.485 154.201 154.197 154.279C153.919 154.368 153.575 154.508 153.166 154.7C152.756 154.912 152.274 155.19 151.722 155.534C151.069 155.953 150.477 156.315 149.945 156.621C149.404 156.936 148.9 157.149 148.434 157.261C147.968 157.392 147.526 157.396 147.108 157.273C146.689 157.17 146.276 156.9 145.869 156.464C145.111 155.651 144.871 154.793 145.148 153.889C145.425 153.005 146.132 152.032 147.269 150.972C148.64 149.694 149.844 148.979 150.881 148.829C151.917 148.698 152.899 149.13 153.827 150.125L152.502 151.361C152.227 151.067 151.929 150.879 151.608 150.799C151.286 150.719 150.947 150.732 150.59 150.837C150.232 150.943 149.862 151.126 149.48 151.388C149.087 151.659 148.688 151.984 148.282 152.363C147.906 152.713 147.61 153.027 147.394 153.305C147.177 153.602 147.025 153.866 146.939 154.099C146.852 154.332 146.83 154.542 146.872 154.73C146.915 154.919 146.998 155.079 147.121 155.211C147.32 155.424 147.537 155.535 147.772 155.543C147.998 155.561 148.255 155.501 148.545 155.364C148.844 155.237 149.18 155.047 149.552 154.795C149.934 154.553 150.381 154.269 150.894 153.943C151.376 153.626 151.873 153.333 152.383 153.066C152.893 152.799 153.401 152.601 153.907 152.471C154.402 152.351 154.884 152.338 155.353 152.433C155.821 152.528 156.254 152.789 156.651 153.216Z" fill="black"/>
<path d="M140.082 157.231L145.97 165.82L144.373 166.915L138.484 158.326L140.082 157.231ZM148.104 168.196C148.371 168.585 148.481 168.93 148.435 169.231C148.385 169.551 148.154 169.853 147.742 170.136C147.341 170.41 146.988 170.509 146.683 170.432C146.374 170.375 146.086 170.151 145.819 169.762C145.552 169.373 145.444 169.018 145.494 168.697C145.54 168.396 145.763 168.109 146.164 167.834C146.576 167.551 146.937 167.439 147.246 167.496C147.551 167.573 147.837 167.806 148.104 168.196Z" fill="black"/>
<path d="M133.913 165.296L136.911 171.412L138.239 175.399L136.986 176.014L132.311 166.475C132.183 166.214 132.042 165.958 131.889 165.708C131.723 165.465 131.538 165.262 131.335 165.098C131.137 164.948 130.905 164.853 130.638 164.813C130.378 164.787 130.079 164.856 129.742 165.021C129.506 165.137 129.306 165.281 129.143 165.454C128.968 165.632 128.845 165.839 128.775 166.075C128.704 166.31 128.693 166.586 128.74 166.904C128.781 167.239 128.905 167.619 129.113 168.043L127.486 168.84C127.131 168.117 126.913 167.467 126.831 166.888C126.755 166.323 126.786 165.82 126.927 165.38C127.067 164.94 127.318 164.554 127.681 164.222C128.031 163.895 128.462 163.607 128.973 163.356C129.484 163.106 129.97 162.945 130.43 162.874C130.878 162.81 131.312 162.844 131.733 162.978C132.148 163.13 132.54 163.394 132.91 163.77C133.267 164.151 133.602 164.66 133.913 165.296ZM139.323 170.229L130.346 174.629L129.549 173.002L138.526 168.602L139.323 170.229Z" fill="black"/>
<path d="M116.505 167.29L125.269 176.635L123.136 177.204L115.738 169.348L116.505 167.29ZM115.316 168.814C115.38 167.977 115.446 167.227 115.513 166.563C115.563 165.888 115.68 165.304 115.865 164.809C116.045 164.301 116.322 163.882 116.694 163.553C117.049 163.214 117.562 162.955 118.233 162.776C118.742 162.641 119.212 162.623 119.641 162.724C120.054 162.815 120.427 163.003 120.762 163.288C121.083 163.576 121.368 163.945 121.618 164.396C121.85 164.837 122.04 165.332 122.186 165.882L120.516 166.328C120.394 165.872 120.261 165.505 120.115 165.228C119.956 164.954 119.801 164.751 119.651 164.619C119.483 164.476 119.319 164.398 119.157 164.384C118.982 164.373 118.807 164.391 118.632 164.437C118.377 164.505 118.172 164.625 118.017 164.796C117.857 164.953 117.733 165.159 117.642 165.413C117.548 165.653 117.487 165.936 117.458 166.259C117.413 166.573 117.376 166.921 117.348 167.302L116.475 178.981L114.483 179.512L115.316 168.814Z" fill="black"/>
</svg>
